<svg viewBox="0 0 800 500" xmlns="http://www.w3.org/2000/svg">
  <!-- Background -->
  <rect width="800" height="500" fill="#f8f9fa"/>
  
  <!-- Title -->
  <text x="400" y="30" text-anchor="middle" font-family="Arial, sans-serif" font-size="24" font-weight="bold" fill="#2c3e50">
    Data Infrastructure Transformation
  </text>
  
  <!-- Dividing line -->
  <line x1="400" y1="50" x2="400" y2="450" stroke="#e0e0e0" stroke-width="2" stroke-dasharray="5,5"/>
  
  <!-- BEFORE Section -->
  <text x="200" y="70" text-anchor="middle" font-family="Arial, sans-serif" font-size="20" font-weight="bold" fill="#e74c3c">
    BEFORE (First Year)
  </text>
  
  <!-- Before: 7 Provider dots -->
  <g id="before-providers">
    <circle cx="120" cy="120" r="12" fill="#3498db"/>
    <text x="120" y="125" text-anchor="middle" font-family="Arial, sans-serif" font-size="10" fill="white" font-weight="bold">P1</text>
    
    <circle cx="160" cy="110" r="12" fill="#3498db"/>
    <text x="160" y="115" text-anchor="middle" font-family="Arial, sans-serif" font-size="10" fill="white" font-weight="bold">P2</text>
    
    <circle cx="200" cy="130" r="12" fill="#3498db"/>
    <text x="200" y="135" text-anchor="middle" font-family="Arial, sans-serif" font-size="10" fill="white" font-weight="bold">P3</text>
    
    <circle cx="240" cy="115" r="12" fill="#3498db"/>
    <text x="240" y="120" text-anchor="middle" font-family="Arial, sans-serif" font-size="10" fill="white" font-weight="bold">P4</text>
    
    <circle cx="280" cy="125" r="12" fill="#3498db"/>
    <text x="280" y="130" text-anchor="middle" font-family="Arial, sans-serif" font-size="10" fill="white" font-weight="bold">P5</text>
    
    <circle cx="200" cy="90" r="12" fill="#3498db"/>
    <text x="200" y="95" text-anchor="middle" font-family="Arial, sans-serif" font-size="10" fill="white" font-weight="bold">P6</text>
    
    <circle cx="160" cy="140" r="12" fill="#3498db"/>
    <text x="160" y="145" text-anchor="middle" font-family="Arial, sans-serif" font-size="10" fill="white" font-weight="bold">P7</text>
  </g>
  
  <!-- Before: Funnel lines -->
  <g id="before-funnel" stroke="#95a5a6" stroke-width="2" fill="none">
    <path d="M 120 132 L 180 200"/>
    <path d="M 160 122 L 180 200"/>
    <path d="M 200 102 L 180 200"/>
    <path d="M 200 142 L 180 200"/>
    <path d="M 240 127 L 180 200"/>
    <path d="M 280 137 L 180 200"/>
    <path d="M 160 152 L 180 200"/>
  </g>
  
  <!-- Before: Aggregate Data Box -->
  <rect x="130" y="200" width="100" height="60" fill="#e74c3c" stroke="#c0392b" stroke-width="2" rx="5"/>
  <text x="180" y="220" text-anchor="middle" font-family="Arial, sans-serif" font-size="12" font-weight="bold" fill="white">
    Aggregate
  </text>
  <text x="180" y="235" text-anchor="middle" font-family="Arial, sans-serif" font-size="12" font-weight="bold" fill="white">
    Data
  </text>
  <text x="180" y="250" text-anchor="middle" font-family="Arial, sans-serif" font-size="10" fill="white">
    Monthly
  </text>
  
  <!-- Before: Metrics -->
  <text x="200" y="290" text-anchor="middle" font-family="Arial, sans-serif" font-size="14" font-weight="bold" fill="#2c3e50">
    7 Programs
  </text>
  <text x="200" y="310" text-anchor="middle" font-family="Arial, sans-serif" font-size="14" font-weight="bold" fill="#2c3e50">
    8,125 Services
  </text>
  <text x="200" y="330" text-anchor="middle" font-family="Arial, sans-serif" font-size="12" fill="#7f8c8d">
    Limited insights
  </text>
  
  <!-- Before: Limitations -->
  <text x="200" y="360" text-anchor="middle" font-family="Arial, sans-serif" font-size="10" fill="#e74c3c">
    ✗ No individual client-level data
  </text>
    <text x="200" y="375" text-anchor="middle" font-family="Arial, sans-serif" font-size="10" fill="#e74c3c">
    ✗ No individual service-level data
  </text>
  <text x="200" y="390" text-anchor="middle" font-family="Arial, sans-serif" font-size="10" fill="#e74c3c">
    ✗ Non-standardized data definitions
  </text>
  <text x="200" y="405" text-anchor="middle" font-family="Arial, sans-serif" font-size="10" fill="#e74c3c">
    ✗ Annual reporting
  </text>
  <text x="200" y="420" text-anchor="middle" font-family="Arial, sans-serif" font-size="10" fill="#e74c3c">
    ✗ Quality controls absent
  </text>
  
  <!-- AFTER Section -->
  <text x="600" y="70" text-anchor="middle" font-family="Arial, sans-serif" font-size="20" font-weight="bold" fill="#27ae60">
    AFTER (2024)
  </text>
  
  <!-- After: 27 Provider dots (arranged in a more organized grid) -->
  <g id="after-providers">
    <!-- Row 1 -->
    <circle cx="480" cy="100" r="8" fill="#2ecc71"/>
    <circle cx="500" cy="100" r="8" fill="#2ecc71"/>
    <circle cx="520" cy="100" r="8" fill="#2ecc71"/>
    <circle cx="540" cy="100" r="8" fill="#2ecc71"/>
    <circle cx="560" cy="100" r="8" fill="#2ecc71"/>
    <circle cx="580" cy="100" r="8" fill="#2ecc71"/>
    <circle cx="600" cy="100" r="8" fill="#2ecc71"/>
    <circle cx="620" cy="100" r="8" fill="#2ecc71"/>
    <circle cx="640" cy="100" r="8" fill="#2ecc71"/>
    
    <!-- Row 2 -->
    <circle cx="480" cy="120" r="8" fill="#2ecc71"/>
    <circle cx="500" cy="120" r="8" fill="#2ecc71"/>
    <circle cx="520" cy="120" r="8" fill="#2ecc71"/>
    <circle cx="540" cy="120" r="8" fill="#2ecc71"/>
    <circle cx="560" cy="120" r="8" fill="#2ecc71"/>
    <circle cx="580" cy="120" r="8" fill="#2ecc71"/>
    <circle cx="600" cy="120" r="8" fill="#2ecc71"/>
    <circle cx="620" cy="120" r="8" fill="#2ecc71"/>
    <circle cx="640" cy="120" r="8" fill="#2ecc71"/>
    
    <!-- Row 3 -->
    <circle cx="480" cy="140" r="8" fill="#2ecc71"/>
    <circle cx="500" cy="140" r="8" fill="#2ecc71"/>
    <circle cx="520" cy="140" r="8" fill="#2ecc71"/>
    <circle cx="540" cy="140" r="8" fill="#2ecc71"/>
    <circle cx="560" cy="140" r="8" fill="#2ecc71"/>
    <circle cx="580" cy="140" r="8" fill="#2ecc71"/>
    <circle cx="600" cy="140" r="8" fill="#2ecc71"/>
    <circle cx="620" cy="140" r="8" fill="#2ecc71"/>
    <circle cx="640" cy="140" r="8" fill="#2ecc71"/>
  </g>
  
  <!-- After: Funnel lines (more organized) -->
  <g id="after-funnel" stroke="#27ae60" stroke-width="1.5" fill="none" opacity="0.7">
    <!-- Multiple lines from provider grid to database -->
    <path d="M 480 108 L 560 180"/>
    <path d="M 500 108 L 560 180"/>
    <path d="M 520 108 L 560 180"/>
    <path d="M 540 108 L 560 180"/>
    <path d="M 560 108 L 560 180"/>
    <path d="M 580 108 L 560 180"/>
    <path d="M 600 108 L 560 180"/>
    <path d="M 620 108 L 560 180"/>
    <path d="M 640 108 L 560 180"/>
    
    <path d="M 480 128 L 560 180"/>
    <path d="M 500 128 L 560 180"/>
    <path d="M 520 128 L 560 180"/>
    <path d="M 540 128 L 560 180"/>
    <path d="M 560 128 L 560 180"/>
    <path d="M 580 128 L 560 180"/>
    <path d="M 600 128 L 560 180"/>
    <path d="M 620 128 L 560 180"/>
    <path d="M 640 128 L 560 180"/>
    
    <path d="M 480 148 L 560 180"/>
    <path d="M 500 148 L 560 180"/>
    <path d="M 520 148 L 560 180"/>
    <path d="M 540 148 L 560 180"/>
    <path d="M 560 148 L 560 180"/>
    <path d="M 580 148 L 560 180"/>
    <path d="M 600 148 L 560 180"/>
    <path d="M 620 148 L 560 180"/>
    <path d="M 640 148 L 560 180"/>
  </g>
  
  <!-- After: Database icon -->
  <g id="database">
    <!-- Database cylinder -->
    <ellipse cx="560" cy="180" rx="50" ry="12" fill="#3498db" stroke="#2980b9" stroke-width="2"/>
    <rect x="510" y="180" width="100" height="40" fill="#3498db" stroke="#2980b9" stroke-width="2"/>
    <ellipse cx="560" cy="220" rx="50" ry="12" fill="#2980b9" stroke="#2980b9" stroke-width="2"/>
    
    <!-- Database details -->
    <ellipse cx="560" cy="190" rx="45" ry="8" fill="#5dade2" opacity="0.7"/>
    <ellipse cx="560" cy="200" rx="45" ry="8" fill="#5dade2" opacity="0.7"/>
    <ellipse cx="560" cy="210" rx="45" ry="8" fill="#5dade2" opacity="0.7"/>
    
    <!-- Database label -->
    <text x="560" y="185" text-anchor="middle" font-family="Arial, sans-serif" font-size="10" font-weight="bold" fill="white">
      Client &amp; Service
    </text>
    <text x="560" y="198" text-anchor="middle" font-family="Arial, sans-serif" font-size="10" font-weight="bold" fill="white">
      Level Data
    </text>
    <text x="560" y="211" text-anchor="middle" font-family="Arial, sans-serif" font-size="9" fill="white">
      Real-time QA
    </text>
  </g>
  
  <!-- After: Metrics -->
  <text x="600" y="260" text-anchor="middle" font-family="Arial, sans-serif" font-size="14" font-weight="bold" fill="#2c3e50">
    27 Programs
  </text>
  <text x="600" y="280" text-anchor="middle" font-family="Arial, sans-serif" font-size="14" font-weight="bold" fill="#2c3e50">
    45,000+ Services
  </text>
  <text x="600" y="300" text-anchor="middle" font-family="Arial, sans-serif" font-size="12" fill="#7f8c8d">
    Comprehensive insights
  </text>
  
 <!-- After: Improvements -->
 <text x="600" y="350" text-anchor="middle" font-family="Arial, sans-serif" font-size="10" fill="#27ae60">
   ✓ Individual client-level tracking
 </text>
   <text x="600" y="365" text-anchor="middle" font-family="Arial, sans-serif" font-size="10" fill="#27ae60">
   ✓ Individual service-level tracking
 </text>
   <text x="600" y="380" text-anchor="middle" font-family="Arial, sans-serif" font-size="10" fill="#27ae60">
   ✓ Standardized data definitions aligned to
 </text>
   <text x="600" y="395" text-anchor="middle" font-family="Arial, sans-serif" font-size="10" fill="#27ae60">
   Federal and State reporting standards
 </text>
 <text x="600" y="410" text-anchor="middle" font-family="Arial, sans-serif" font-size="10" fill="#27ae60">
   ✓ Monthly reporting
 </text>
 <text x="600" y="425" text-anchor="middle" font-family="Arial, sans-serif" font-size="10" fill="#27ae60">
   ✓ Robust quality control
 </text>
 <text x="600" y="440" text-anchor="middle" font-family="Arial, sans-serif" font-size="10" fill="#27ae60">
   ✓ Outcome evaluation ready
 </text>
  
  <!-- Arrow showing transformation -->
  <g id="transformation-arrow">
    <path d="M 320 230 L 380 230" stroke="#34495e" stroke-width="3" fill="none" marker-end="url(#arrowhead)"/>
    <text x="350" y="210" text-anchor="middle" font-family="Arial, sans-serif" font-size="12" font-weight="bold" fill="#34495e">
      TRANSFORMATION
    </text>
  </g>
  
  <!-- Arrow marker definition -->
  <defs>
    <marker id="arrowhead" markerWidth="10" markerHeight="7" refX="9" refY="3.5" orient="auto">
      <polygon points="0 0, 10 3.5, 0 7" fill="#34495e"/>
    </marker>
  </defs>
  
  <!-- Scale indicator -->
  <text x="400" y="470" text-anchor="middle" font-family="Arial, sans-serif" font-size="12" font-style="italic" fill="#7f8c8d">
    5.5x increase in service volume • 4x increase in provider participation
  </text>
</svg>